<?xml version="1.0" encoding="UTF-8"?>
<svg id="Camada_2" data-name="Camada 2" xmlns="http://www.w3.org/2000/svg" viewBox="0 0 234.09 142.38">
  <defs>
    <style>
      .cls-1 {
        fill: #7d4dff;
      }
    </style>
  </defs>
  <g id="Camada_1-2" data-name="Camada 1">
    <g>
      <path class="cls-1" d="M65.44,32.72c-18.07,0-32.72,14.65-32.72,32.72h0c0-18.07-14.65-32.72-32.72-32.72h0c18.07,0,32.72-14.65,32.72-32.72h0c0,18.07,14.65,32.72,32.72,32.72h0Z"/>
      <g>
        <path d="M103.48,58.81c-.48,11.82-8.47,16.94-16.14,17.42-15.82.8-17.26-17.74-2.56-20.77l27.81-6.39c12.3-2.88,16.62-16.46,15.66-27.49C126.97,3.2,112.26,0,94.21,0h-45.7c-.09,11.98,9.6,21.73,21.57,21.73h21.41c11.83,0,15.34,12.62,3.2,15.5-8.15,1.92-16.3,1.92-25.41,4.31-33.88,9.11-29.08,56.41,7.51,56.41,12.46,0,19.34-5.43,27.65-13.9,0,.32.16,13.58.16,13.9h24.93v-40.11h-26.05v.96Z"/>
        <path d="M192,0c-12.46,0-23.01,4.63-28.76,14.54l-.16-14.54h-25.09l.32,42.35c32.12,2.24,26.21-20.29,46.5-20.45,15.5,0,21.57,10.87,21.73,26.69.16,15.34-6.71,27.01-21.09,27.01-22.37-.32-10.55-21.09-47.14-18.22v85.01h25.09v-58.97c3.04,9.27,15.34,14.7,28.29,14.54,29.24,0,43.47-20.77,42.35-50.5C232.91,17.1,219.97.16,192,0Z"/>
      </g>
    </g>
  </g>
</svg>