<?xml version="1.0" encoding="UTF-8"?>
<svg id="Camada_2" data-name="Camada 2" xmlns="http://www.w3.org/2000/svg" viewBox="0 0 36 36">
  <defs>
    <style>
      .cls-1 {
        fill: #f4f4f4;
      }
    </style>
  </defs>
  <g id="Camada_1-2" data-name="Camada 1">
    <path class="cls-1" d="M19.72,8.12L25.46,0l-1.69,9.8c-.25,1.43,1,2.68,2.43,2.43l9.8-1.69-8.12,5.74c-1.19.84-1.19,2.6,0,3.44l8.12,5.74-9.8-1.69c-1.43-.25-2.68,1-2.43,2.43l1.69,9.8-5.74-8.12c-.84-1.19-2.6-1.19-3.44,0l-5.74,8.12,1.69-9.8c.25-1.43-1-2.68-2.43-2.43l-9.8,1.69,8.12-5.74c1.19-.84,1.19-2.6,0-3.44L0,10.54l9.8,1.69c1.43.25,2.68-1,2.43-2.43L10.54,0l5.74,8.12c.84,1.19,2.6,1.19,3.44,0Z"/>
  </g>
</svg>