<?xml version="1.0" encoding="UTF-8"?>
<svg id="Camada_2" data-name="Camada 2" xmlns="http://www.w3.org/2000/svg" viewBox="0 0 561.45 174.82">
  <defs>
    <style>
      .cls-1 {
        fill: #f4f4f4;
      }

      .cls-2 {
        fill: #7d4dff;
      }
    </style>
  </defs>
  <g id="Camada_1-2" data-name="Camada 1">
    <g>
      <path class="cls-2" d="M65.44,65.16c-18.07,0-32.72,14.65-32.72,32.72h0c0-18.07-14.65-32.72-32.72-32.72h0c18.07,0,32.72-14.65,32.72-32.72h0c0,18.07,14.65,32.72,32.72,32.72h0Z"/>
      <g>
        <path class="cls-1" d="M103.48,91.25c-.48,11.82-8.47,16.94-16.14,17.42-15.82.8-17.26-17.74-2.56-20.77l27.81-6.39c12.3-2.88,16.62-16.46,15.66-27.49-1.28-18.38-15.98-21.57-34.04-21.57h-45.7c-.09,11.98,9.6,21.73,21.57,21.73h21.41c11.83,0,15.34,12.62,3.2,15.5-8.15,1.92-16.3,1.92-25.41,4.31-33.88,9.11-29.08,56.41,7.51,56.41,12.46,0,19.34-5.43,27.65-13.9,0,.32.16,13.58.16,13.9h24.93v-40.11h-26.05v.96Z"/>
        <path class="cls-1" d="M192,32.44c-12.46,0-23.01,4.63-28.76,14.54l-.16-14.54h-25.09l.32,42.35c32.12,2.24,26.21-20.29,46.5-20.45,15.5,0,21.57,10.87,21.73,26.69.16,15.34-6.71,27.01-21.09,27.01-22.37-.32-10.55-21.09-47.14-18.22v85.01h25.09v-58.97c3.04,9.27,15.34,14.7,28.29,14.54,29.24,0,43.47-20.77,42.35-50.5-1.12-30.36-14.06-47.3-42.03-47.46Z"/>
        <path class="cls-1" d="M289.48,31.64c-30.04-.16-46.66,22.21-46.66,50.18-.64,30.2,16.46,48.58,47.62,48.58,20.61,0,42.35-11.19,44.43-32.28h-26.05c-2.72,6.55-6.87,11.03-17.9,11.03-14.7,0-21.41-8.31-21.89-21.73h66.96c4-29.4-9.11-55.77-46.5-55.77ZM292.51,71.43c-7.83,0-18.22,1.76-24.13,11.51-.16-1.92-.16-4.47-.16-5.91.96-14.86,12.78-23.49,22.85-23.17s18.22,5.43,19.02,17.74l-17.58-.16Z"/>
        <path class="cls-1" d="M438.09,24.45c6.71,0,12.15-5.43,12.15-12.3s-5.43-12.15-12.15-12.15-12.3,5.43-12.3,12.15,5.43,12.3,12.3,12.3Z"/>
        <path class="cls-1" d="M425.46,32.28h-13.26c-25.89,0-34.2,11.35-37.39,36.28l-3.68-36.28h-23.17c-.16,20.93-.16,42.03-.16,62.96v35.16h26.69c.32-10.39.48-20.93.96-31.32.64-20.93,15.34-44.9,38.51-44.9h11.5v76.23h25.09V32.28h-25.09Z"/>
        <path class="cls-1" d="M511.43,32.28c-31.64,0-50.02,20.14-50.02,49.06s17.74,49.38,49.54,49.38,50.5-20.13,50.5-49.38-18.38-49.06-50.02-49.06ZM511.27,108.35c-18.06,0-23.33-12.46-23.33-27.01.16-14.86,6.23-27.01,23.33-27.01,17.1-.16,23.33,12.94,23.33,27.01s-5.43,27.01-23.33,27.01Z"/>
      </g>
    </g>
  </g>
</svg>